<?xml version="1.0" encoding="utf-8"?>


<!-- The icon can be used freely in both personal and commercial projects with no attribution required, but always appreciated. 
You may NOT sub-license, resell, rent, redistribute or otherwise transfer the icon without express written permission from iconmonstr.com -->


<!DOCTYPE svg PUBLIC "-//W3C//DTD SVG 1.1//EN" "http://www.w3.org/Graphics/SVG/1.1/DTD/svg11.dtd">

<svg version="1.1" xmlns="http://www.w3.org/2000/svg" xmlns:xlink="http://www.w3.org/1999/xlink" x="0px" y="0px"

	 width="512px" height="512px" viewBox="0 0 512 512" enable-background="new 0 0 512 512" xml:space="preserve">

<path id="pinterest-square-icon" d="M50.473,50v412h412V50H50.473z M282.723,326.23c-17.887,0-34.709-9.67-40.463-20.648

	c0,0-9.623,38.165-11.654,45.535c-7.172,26.027-28.272,52.076-29.908,54.209c-1.143,1.485-3.668,1.018-3.934-0.947

	c-0.457-3.316-5.834-36.16,0.496-62.952c3.178-13.452,21.307-90.267,21.307-90.267s-5.284-10.577-5.284-26.212

	c0-24.55,14.231-42.877,31.947-42.877c15.063,0,22.343,11.31,22.343,24.869c0,15.148-9.645,37.795-14.626,58.782

	c-4.157,17.578,8.814,31.91,26.146,31.91c31.38,0,52.519-40.313,52.519-88.077c0-36.301-24.441-63.483-68.925-63.483

	c-50.239,0-81.561,37.476-81.561,79.34c0,14.429,4.264,24.616,10.935,32.486c3.062,3.621,3.491,5.078,2.382,9.233

	c-0.808,3.052-2.619,10.387-3.385,13.294c-1.1,4.201-4.499,5.697-8.292,4.146c-23.136-9.447-33.923-34.795-33.923-63.287

	c0-47.055,39.686-103.483,118.389-103.483c63.254,0,104.874,45.761,104.874,94.9C372.104,277.684,335.976,326.23,282.723,326.23z"/>

</svg>

