<?xml version="1.0" encoding="utf-8"?>


<!-- The icon can be used freely in both personal and commercial projects with no attribution required, but always appreciated. 
You may NOT sub-license, resell, rent, redistribute or otherwise transfer the icon without express written permission from iconmonstr.com -->


<!DOCTYPE svg PUBLIC "-//W3C//DTD SVG 1.1//EN" "http://www.w3.org/Graphics/SVG/1.1/DTD/svg11.dtd">

<svg version="1.1" xmlns="http://www.w3.org/2000/svg" xmlns:xlink="http://www.w3.org/1999/xlink" x="0px" y="0px"

	 width="512px" height="512px" viewBox="0 0 512 512" enable-background="new 0 0 512 512" xml:space="preserve">

<path id="instagram-square-icon" d="M367.64,150.197v29.782c0,4.775-3.872,8.646-8.647,8.646h-29.141

	c-4.776,0-8.646-3.872-8.646-8.646v-29.782c0-4.775,3.87-8.646,8.646-8.646h29.141C363.768,141.551,367.64,145.422,367.64,150.197z

	 M256,296.954c21.932,0,39.709-17.778,39.709-39.709c0-21.932-17.777-39.709-39.709-39.709c-21.931,0-39.71,17.777-39.71,39.709

	C216.29,279.176,234.069,296.954,256,296.954z M462,50v412H50V50H462z M392.278,216.86h-79.617

	c8.113,11.399,12.902,25.328,12.902,40.385c0,38.517-31.224,69.739-69.74,69.739c-38.518,0-69.741-31.223-69.741-69.739

	c0-15.057,4.787-28.986,12.901-40.385h-79.262v122.224c0,29.771,24.136,53.906,53.906,53.906h164.745

	c29.771,0,53.905-24.135,53.905-53.906V216.86z M255.823,310.973c29.626,0,53.728-24.102,53.728-53.728

	c0-16.084-7.114-30.529-18.349-40.385c-3.941-3.456-8.388-6.343-13.218-8.54c-6.762-3.076-14.261-4.803-22.161-4.803

	s-15.399,1.728-22.163,4.803c-4.829,2.196-9.275,5.084-13.217,8.54c-11.234,9.856-18.35,24.301-18.35,40.385

	C202.094,286.871,226.197,310.973,255.823,310.973z M392.278,172.917c0-29.772-24.134-53.906-53.905-53.906H191.064v67.96h-11.054

	v-67.96h-6.383c-0.417,0-0.829,0.021-1.244,0.031v67.929H161.33v-66.534c-2.677,0.625-5.276,1.447-7.783,2.455v64.08h-11.054

	v-58.047c-13.772,9.766-22.771,25.823-22.771,43.993v35.404h86.416c12.649-12.845,30.233-20.815,49.686-20.815

	c19.449,0,37.034,7.971,49.685,20.815h86.771V172.917z"/>

</svg>

