<?xml version="1.0" encoding="utf-8"?>

<!-- The icon can be used freely in both personal and commercial projects with no attribution required, but always appreciated. 
You may NOT sub-license, resell, rent, redistribute or otherwise transfer the icon without express written permission from iconmonstr.com -->

<!DOCTYPE svg PUBLIC "-//W3C//DTD SVG 1.1//EN" "http://www.w3.org/Graphics/SVG/1.1/DTD/svg11.dtd">
<svg version="1.1" xmlns="http://www.w3.org/2000/svg" xmlns:xlink="http://www.w3.org/1999/xlink" x="0px" y="0px"
	 width="512px" height="512px" viewBox="0 0 512 512" enable-background="new 0 0 512 512" xml:space="preserve">
<path id="youtube-2-icon" d="M290.033,294.822c-5.191,0-9.645,3.309-12.926,7.306v-34.122H262.43v105.992h14.678v-6.01
	c4.053,5.053,8.485,6.998,13.809,6.998c9.672,0,13.291-7.514,13.291-17.188v-43.377
	C304.207,303.816,300.681,294.822,290.033,294.822z M289.245,355.672c0,2.492-0.421,4.289-1.259,5.389
	c-1.602,2.098-5.072,2.003-7.438,0.805c-1.111-0.56-2.258-1.477-3.441-2.748v-48.725c0.987-1.073,1.985-1.869,2.998-2.383
	c2.544-1.287,5.828-1.037,7.586,1.284c1.037,1.368,1.554,3.37,1.554,6.008V355.672z M233.709,295.811h14.537v78.188h-14.537v-8.631
	c-2.68,3.181-5.465,5.604-8.363,7.268c-7.836,4.488-18.594,4.392-18.594-11.473v-65.352h14.538v59.936
	c0,3.146,0.763,5.27,3.872,5.27c2.833,0,6.773-3.635,8.547-5.855V295.811z M206.951,283.39h-16.938v90.608h-16.371V283.39h-16.937
	v-15.384h50.245V283.39z M240.281,201.917v-38.188c0-4.493,2.068-7.829,6.356-7.829c4.681,0,6.685,3.235,6.685,7.829v38.188
	c0,4.47-2.278,7.773-6.385,7.773C242.721,209.69,240.281,206.242,240.281,201.917z M50,50v412h412V50H50z M281.84,140.995h15.264
	v62.934c0,3.302,0.799,5.531,4.066,5.531c2.976,0,7.114-3.818,8.975-6.148v-62.317h15.264v82.099h-15.264v-9.063
	c-6.614,7.846-13.024,10.249-17.643,10.249c-8.183,0-10.662-6.555-10.662-14.665V140.995z M246.938,140.319
	c12.373,0,21.944,9.206,21.944,22.056v40.242c0,13.79-9.669,22-21.944,22c-14.805,0-22.365-7.532-22.365-22v-40.242
	C224.572,149.203,233.494,140.319,246.938,140.319z M185.018,111.8l11.854,44.485l11.014-44.485h17.467l-20.006,66.153v45.14
	h-17.191v-45.14L167.703,111.8H185.018z M380.961,365.2c0,19.33-15.67,35-35,35H166.039c-19.33,0-35-15.67-35-35v-88.421
	c0-19.331,15.67-35.001,35-35.001h179.922c19.33,0,35,15.67,35,35.001V365.2z M337.252,293.834c-13.113,0-22.08,9.424-22.08,22.997
	v35.095c0,14.076,7.099,24.189,20.979,24.189c15.319,0,21.786-9.123,21.786-24.189v-5.873h-14.962v5.435
	c0,6.808-0.357,10.938-6.494,10.938c-5.853,0-6.349-5.072-6.349-10.938v-14.75h27.805v-19.906
	C357.938,302.699,351.198,293.834,337.252,293.834z M342.976,324.602h-12.843v-7.916c0-5.373,1.107-9.163,6.494-9.163
	c5.229,0,6.349,3.88,6.349,9.163V324.602z"/>
</svg>
